<svg width="34" height="40" viewBox="0 0 34 40" fill="none" xmlns="http://www.w3.org/2000/svg">
<path d="M4.74886 33H0.835227L9.62898 8.56364H13.8886L22.6824 33H18.7687L11.8602 13.0023H11.6693L4.74886 33ZM5.40511 23.4307H18.1006V26.533H5.40511V23.4307Z" fill="white"/>
<path d="M20.8473 14.1491C20.1158 14.1491 19.4624 14.0231 18.8871 13.771C18.3153 13.5188 17.8626 13.169 17.5288 12.7216C17.1985 12.2706 17.021 11.7486 16.9961 11.1555H18.6687C18.69 11.4787 18.7983 11.7592 18.9936 11.9972C19.1925 12.2315 19.4517 12.4126 19.7713 12.5405C20.0909 12.6683 20.446 12.7322 20.8366 12.7322C21.2663 12.7322 21.6463 12.6577 21.9766 12.5085C22.3104 12.3594 22.5714 12.1516 22.7596 11.8853C22.9478 11.6154 23.0419 11.3047 23.0419 10.9531C23.0419 10.5874 22.9478 10.266 22.7596 9.98899C22.5749 9.70845 22.3033 9.48828 21.9446 9.32848C21.5895 9.16868 21.1598 9.08878 20.6555 9.08878H19.734V7.74645H20.6555C21.0604 7.74645 21.4155 7.67365 21.7209 7.52805C22.0298 7.38246 22.2713 7.18004 22.4453 6.92081C22.6193 6.65803 22.7063 6.35085 22.7063 5.99929C22.7063 5.66193 22.63 5.36896 22.4773 5.12038C22.3281 4.86825 22.1151 4.67116 21.8381 4.52912C21.5646 4.38707 21.2415 4.31605 20.8686 4.31605C20.5135 4.31605 20.1815 4.38175 19.8725 4.51314C19.5671 4.64098 19.3185 4.82564 19.1268 5.06712C18.935 5.30504 18.832 5.59091 18.8178 5.92472H17.2251C17.2429 5.33523 17.4169 4.81676 17.7472 4.36932C18.081 3.92187 18.5213 3.57209 19.0682 3.31996C19.6151 3.06783 20.2223 2.94176 20.8899 2.94176C21.5895 2.94176 22.1932 3.07848 22.701 3.35192C23.2124 3.6218 23.6065 3.98224 23.8835 4.43324C24.1641 4.88423 24.3026 5.37784 24.299 5.91406C24.3026 6.52486 24.1321 7.04332 23.7876 7.46946C23.4467 7.8956 22.9922 8.18146 22.424 8.32706V8.41229C23.1484 8.52237 23.7095 8.81001 24.1072 9.27521C24.5085 9.74041 24.7074 10.3175 24.7038 11.0064C24.7074 11.6065 24.5405 12.1445 24.2031 12.6204C23.8693 13.0962 23.413 13.4709 22.8342 13.7443C22.2553 14.0142 21.593 14.1491 20.8473 14.1491Z" fill="white"/>
<line x1="24" y1="3.25" x2="30" y2="3.25" stroke="white" stroke-width="1.5"/>
<line x1="27.2" y1="15" x2="27.2" y2="4" stroke="white" stroke-width="1.6"/>
<line x1="22" y1="8.25" x2="28" y2="8.25" stroke="white" stroke-width="1.5"/>
</svg>
