<svg width="52" height="52" viewBox="0 0 52 52" fill="none" xmlns="http://www.w3.org/2000/svg">
<path d="M30.3333 21.6667V30.3333H21.6667V21.6667H30.3333ZM34.6667 21.6667H45.5V30.3333H34.6667V21.6667ZM30.3333 45.5H21.6667V34.6667H30.3333V45.5ZM34.6667 45.5V34.6667H45.5V43.3333C45.5 43.908 45.2717 44.4591 44.8654 44.8654C44.4591 45.2717 43.908 45.5 43.3333 45.5H34.6667ZM30.3333 6.5V17.3333H21.6667V6.5H30.3333ZM34.6667 6.5H43.3333C43.908 6.5 44.4591 6.72827 44.8654 7.1346C45.2717 7.54093 45.5 8.09203 45.5 8.66667V17.3333H34.6667V6.5ZM17.3333 21.6667V30.3333H6.5V21.6667H17.3333ZM17.3333 45.5H8.66667C8.09203 45.5 7.54093 45.2717 7.1346 44.8654C6.72827 44.4591 6.5 43.908 6.5 43.3333V34.6667H17.3333V45.5ZM17.3333 6.5V17.3333H6.5V8.66667C6.5 8.09203 6.72827 7.54093 7.1346 7.1346C7.54093 6.72827 8.09203 6.5 8.66667 6.5H17.3333Z" fill="white"/>
</svg>
